<?xml version="1.0" encoding="utf-8"?>
<!-- Generator: Adobe Illustrator 22.0.1, SVG Export Plug-In . SVG Version: 6.00 Build 0)  -->
<svg version="1.1" xmlns="http://www.w3.org/2000/svg" xmlns:xlink="http://www.w3.org/1999/xlink" x="0px" y="0px"
	 viewBox="0 0 1073.6 1074.2" style="enable-background:new 0 0 1073.6 1074.2;" xml:space="preserve">
<style type="text/css">
	.st0{fill:url(#SVGID_1_);}
	.st1{fill:url(#SVGID_2_);}
	.st2{fill:url(#SVGID_3_);}
</style>
<g id="BKG">
</g>
<g id="NSE_LOGO">
	<g>
		<linearGradient id="SVGID_1_" gradientUnits="userSpaceOnUse" x1="229.1843" y1="537.0441" x2="820.5727" y2="537.0441">
			<stop  offset="0" style="stop-color:#FFC800"/>
			<stop  offset="0.3257" style="stop-color:#FF1577"/>
			<stop  offset="1" style="stop-color:#00BFE9"/>
		</linearGradient>
		<polygon class="st0" points="435.5,434.3 383.8,434.3 383.8,553.9 301.2,434.3 301.2,434.1 249.9,434.1 249.9,434.1 236,434.1 
			213.4,479 249.9,479 249.9,640 301.2,640 301.2,518.9 383.8,638.4 383.8,640 436.3,640 435.5,638.8 		"/>
		<linearGradient id="SVGID_2_" gradientUnits="userSpaceOnUse" x1="229.1843" y1="537.147" x2="820.5727" y2="537.147">
			<stop  offset="0" style="stop-color:#FFC800"/>
			<stop  offset="0.3257" style="stop-color:#FF1577"/>
			<stop  offset="1" style="stop-color:#00BFE9"/>
		</linearGradient>
		<path class="st1" d="M582.4,514.4h-62.2c-11.3-1.2-16.9-6.9-16.9-16.9c-0.1-11.1,4.9-17.4,15-18.9h98.2l20.8-44.3h-131
			c-36,4.5-54.1,24.9-54.4,61.2v5.8c0.3,31.6,18.5,50.4,54.8,56.4H569c11.3,1.9,16.9,7.9,16.9,17.9c0,11.5-5.3,18.2-15.9,20h-97.6
			L452.1,640h130.8c36-4.4,54.1-25.5,54.4-63.2V571C636.9,539.3,618.7,520.4,582.4,514.4z"/>
		<linearGradient id="SVGID_3_" gradientUnits="userSpaceOnUse" x1="229.1843" y1="537.3011" x2="820.5727" y2="537.3011">
			<stop  offset="0" style="stop-color:#FFC800"/>
			<stop  offset="0.3257" style="stop-color:#FF1577"/>
			<stop  offset="1" style="stop-color:#00BFE9"/>
		</linearGradient>
		<polygon class="st2" points="710.9,595.2 710.9,557.6 788.4,557.6 788.4,513.6 710.9,513.6 710.9,479.4 803.1,479.4 814.6,479.4 
			837.2,434.5 803.1,434.5 710.9,434.5 659.9,434.5 658.9,434.5 636.3,479.4 659.9,479.4 659.9,513.6 659.9,557.6 659.9,595.3 
			659.9,640 677,640 677,640.1 837.2,640.1 814.6,595.2 		"/>
	</g>
</g>
</svg>
